<svg id="Layer_3" data-name="Layer 3" xmlns="http://www.w3.org/2000/svg" viewBox="0 0 94.31 94.31">
  <title>chimere_picto_</title>
  <path d="M29.81,94.31c0.48-5.38,3.35-7.85,5.17-12.54,2.85-7.33,9.05-13.66,6.08-20.88a37.23,37.23,0,0,0-3.65-6.3c-0.66-1-1.36-2-2.07-3-3.34-4.7-7.12-10-7.71-16.91a19.31,19.31,0,0,1,5-14.65,17.79,17.79,0,0,1,13-5.94A16.69,16.69,0,0,1,57,18.73a3.12,3.12,0,0,1-3.74,5,10.92,10.92,0,0,0-5.65-1.85,6.87,6.87,0,0,0-6.28,4.24,11.38,11.38,0,0,0,1.84,12A34.69,34.69,0,0,0,48,42.63c1,0.81,2,1.65,3,2.56A46.61,46.61,0,0,1,61.27,58.15c4.39,8.56,3.59,16.25,2.82,23.7-0.51,4.94-1,7.57,0,12.47H29.81Z"/>
</svg>
