<?xml version="1.0" encoding="utf-8"?>
<!-- Generator: Adobe Illustrator 19.2.0, SVG Export Plug-In . SVG Version: 6.00 Build 0)  -->
<svg version="1.1" id="Layer_3" xmlns="http://www.w3.org/2000/svg" xmlns:xlink="http://www.w3.org/1999/xlink" x="0px" y="0px"
	 viewBox="0 0 94.3 94.3" style="enable-background:new 0 0 94.3 94.3;" xml:space="preserve">
<title>chimere_picto_</title>
<path d="M47.2,52c-22.4-11.3-37.1,9.6-37.1,9.6s15.2,16.1,37.1,16.1s37-16.1,37-16.1S69.5,40.7,47.2,52z"/>
<g>
	<path d="M68.2,38.1H68c-1.3,0-2.3-1-2.3-2.3V14.7c0-1.3,1-2.3,2.3-2.3h0.2c1.3,0,2.3,1,2.3,2.3v21.1C70.5,37.1,69.5,38.1,68.2,38.1
		z"/>
	<path d="M55.3,25.4v-0.2c0-1.3,1-2.3,2.3-2.3h21.1c1.3,0,2.3,1,2.3,2.3v0.2c0,1.3-1,2.3-2.3,2.3H57.6
		C56.3,27.7,55.3,26.7,55.3,25.4z"/>
</g>
</svg>
