<?xml version="1.0" encoding="utf-8"?>
<!-- Generator: Adobe Illustrator 19.2.0, SVG Export Plug-In . SVG Version: 6.00 Build 0)  -->
<svg version="1.1" id="Layer_3" xmlns="http://www.w3.org/2000/svg" xmlns:xlink="http://www.w3.org/1999/xlink" x="0px" y="0px"
	 viewBox="0 0 94.3 94.3" style="enable-background:new 0 0 94.3 94.3;" xml:space="preserve">
<title>chimere_picto_</title>
<path d="M60.6,66c0.1-5.4-3.9-10.1-9.2-10.9c-2-13.3-5.8-29.5-11.8-29.5S29.8,41.7,27.8,55c-6.1,0.5-10.6,5.8-10,11.9
	c0.4,5.2,4.5,9.4,9.7,10c3.4,6.7,11.6,9.4,18.3,6c2.6-1.3,4.8-3.5,6.1-6.1C56.9,75.8,60.7,71.3,60.6,66z"/>
<g>
	<path d="M68.2,38.1H68c-1.3,0-2.3-1-2.3-2.3V14.7c0-1.3,1-2.3,2.3-2.3h0.2c1.3,0,2.3,1,2.3,2.3v21.1C70.5,37.1,69.5,38.1,68.2,38.1
		z"/>
	<path d="M55.3,25.4v-0.2c0-1.3,1-2.3,2.3-2.3h21.1c1.3,0,2.3,1,2.3,2.3v0.2c0,1.3-1,2.3-2.3,2.3H57.6
		C56.3,27.7,55.3,26.7,55.3,25.4z"/>
</g>
</svg>
