<svg id="Layer_3" data-name="Layer 3" xmlns="http://www.w3.org/2000/svg" viewBox="0 0 61.78 61.78">
  <defs>
    <style>
      .cls-1 {
        fill: #fff;
      }

      .cls-2 {
        fill: none;
        stroke: #000;
        stroke-miterlimit: 10;
        stroke-width: 9px;
      }
    </style>
  </defs>
  <title>chimere_picto_</title>
  <rect class="cls-1" x="-133.25" y="-20.94" width="233.33" height="213.94" rx="12" ry="12"/>
  <g>
    <line class="cls-2" x1="30.89" y1="3.7" x2="30.89" y2="57.92"/>
    <path d="M41.87,51.77l-9.42,9.42a2,2,0,0,1-2.83,0L20,51.57a2,2,0,0,1,1.44-3.41l19,0.2A2,2,0,0,1,41.87,51.77Z"/>
    <path d="M19.9,10l9.42-9.42a2,2,0,0,1,2.83,0l9.62,9.62a2,2,0,0,1-1.44,3.41l-19-.2A2,2,0,0,1,19.9,10Z"/>
    <line class="cls-2" x1="58.08" y1="30.89" x2="3.85" y2="30.89"/>
    <path d="M10,41.87L0.59,32.45a2,2,0,0,1,0-2.83L10.21,20a2,2,0,0,1,3.41,1.44l-0.2,19A2,2,0,0,1,10,41.87Z"/>
    <path d="M51.77,19.9l9.42,9.42a2,2,0,0,1,0,2.83l-9.62,9.62a2,2,0,0,1-3.41-1.44l0.2-19A2,2,0,0,1,51.77,19.9Z"/>
  </g>
</svg>
