<svg id="Layer_3" data-name="Layer 3" xmlns="http://www.w3.org/2000/svg" viewBox="0 0 94.31 94.31">
  <title>chimere_picto_</title>
  <path d="M83.66,63.92a27.68,27.68,0,0,0-10.1,4.53,27,27,0,0,0-5.24-3,28.6,28.6,0,0,0-6.83-1.95,12.74,12.74,0,0,1,.23-1.63,13.47,13.47,0,0,1,3.67-6.65A17.21,17.21,0,0,1,71,51.51h0a19.94,19.94,0,0,1,7.53-1.56l0.38,0a20.51,20.51,0,0,1,4.72.59,4.5,4.5,0,0,0,2.11-8.75,29.52,29.52,0,0,0-6.9-.84l-0.44,0a29.42,29.42,0,0,0-5.52.6,12.24,12.24,0,0,1,.62-3.33,13.67,13.67,0,0,1,3.31-5.31h0a18,18,0,0,1,8.88-4.79,4.5,4.5,0,0,0-2-8.78,27.68,27.68,0,0,0-10.1,4.53,27,27,0,0,0-5.24-3,28.6,28.6,0,0,0-6.84-1.95,12.88,12.88,0,0,1,3.19-7.48,4.5,4.5,0,0,0-6.84-5.85,21.67,21.67,0,0,0-5.35,13.31,28,28,0,0,0-12.19,4.93,27,27,0,0,0-5.23-3,28.6,28.6,0,0,0-6.84-1.95,12.87,12.87,0,0,1,3.19-7.48,4.5,4.5,0,1,0-6.84-5.85,21.67,21.67,0,0,0-5.35,13.31,28.11,28.11,0,0,0-12.2,5A4.5,4.5,0,0,0,9.67,32a4.89,4.89,0,0,0,2.64-.75c8.27-5.16,13.81-4,19.22-2.1A11.73,11.73,0,0,1,34,30.47a22,22,0,0,0-2.35,4.92A21.12,21.12,0,0,0,30.57,42a20.66,20.66,0,0,0,.23,3c-0.64.38-1.26,0.79-1.86,1.22a28.46,28.46,0,0,0-16.65-5.28l-0.44,0C11,41,10.15,41,9.2,41.11a4.5,4.5,0,0,0,.93,9C10.82,50,11.42,50,12,49.95l0.38,0a19.6,19.6,0,0,1,10.26,2.88,21.82,21.82,0,0,0-3,7.24,21.34,21.34,0,0,0-.45,3.47A28.09,28.09,0,0,0,7,68.48a4.48,4.48,0,1,0,5.29,7.24,19.42,19.42,0,0,1,10.91-3.61,4.48,4.48,0,0,0,.6.06l0.14,0a19.91,19.91,0,0,1,7.57,1.58A18.45,18.45,0,0,1,34,75.06,22,22,0,0,0,31.66,80a21.41,21.41,0,0,0-.91,4.34,4.5,4.5,0,0,0,4,5,4.37,4.37,0,0,0,.51,0,4.5,4.5,0,0,0,4.47-4,12.62,12.62,0,0,1,.51-2.53,13.69,13.69,0,0,1,3.31-5.31l0.11-.14A18.84,18.84,0,0,1,56.5,72.11a4.49,4.49,0,0,0,.59.06l0.14,0a19.91,19.91,0,0,1,7.57,1.58,18.46,18.46,0,0,1,2.47,1.3A22,22,0,0,0,64.93,80,21.39,21.39,0,0,0,64,84.31a4.5,4.5,0,0,0,4,5,4.4,4.4,0,0,0,.52,0,4.5,4.5,0,0,0,4.47-4,12.63,12.63,0,0,1,.51-2.53,13.67,13.67,0,0,1,3.31-5.31h0a18,18,0,0,1,8.88-4.79A4.5,4.5,0,0,0,83.66,63.92ZM67.28,30.47a22,22,0,0,0-2.34,4.91A21.11,21.11,0,0,0,63.84,42a20.67,20.67,0,0,0,.23,3c-0.64.38-1.26,0.79-1.86,1.22a28.46,28.46,0,0,0-16.65-5.28l-0.44,0a29.42,29.42,0,0,0-5.52.6,12.25,12.25,0,0,1,.62-3.33,13.57,13.57,0,0,1,3-4.93c0.11-.09.23-0.17,0.34-0.27A20,20,0,0,1,64.8,29.17,18.45,18.45,0,0,1,67.28,30.47Zm-39,33.06a12.71,12.71,0,0,1,.23-1.63,13.47,13.47,0,0,1,3.67-6.65,17.21,17.21,0,0,1,5.6-3.74h0a19.94,19.94,0,0,1,7.53-1.56l0.38,0a19.6,19.6,0,0,1,10.26,2.88,21.8,21.8,0,0,0-3,7.24,21.34,21.34,0,0,0-.45,3.47,28,28,0,0,0-12.18,4.93,27,27,0,0,0-5.23-3A28.6,28.6,0,0,0,28.23,63.53Z"/>
</svg>
