<?xml version="1.0" encoding="utf-8"?>
<!-- Generator: Adobe Illustrator 19.2.0, SVG Export Plug-In . SVG Version: 6.00 Build 0)  -->
<svg version="1.1" id="Layer_3" xmlns="http://www.w3.org/2000/svg" xmlns:xlink="http://www.w3.org/1999/xlink" x="0px" y="0px"
	 viewBox="0 0 94.3 94.3" style="enable-background:new 0 0 94.3 94.3;" xml:space="preserve">
<title>chimere_picto_</title>
<path d="M30.8,94.3c0.5-5.4,3.4-7.8,5.2-12.5c2.8-7.3,9-13.7,6.1-20.9c-1-2.2-2.2-4.3-3.7-6.3c-0.7-1-1.4-2-2.1-3
	c-3.3-4.7-7.1-10-7.7-16.9C28.2,29.3,30,24,33.7,20c3.3-3.7,8-5.9,13-5.9c4.2,0,8.3,1.7,11.4,4.6c1.4,1,1.7,3,0.6,4.4
	c-1,1.4-3,1.7-4.4,0.6l0,0c-1.7-1.1-3.6-1.8-5.7-1.9c-2.8,0-5.2,1.7-6.3,4.2c-1.7,4-1,8.7,1.8,12c1.5,1.7,3.1,3.2,4.8,4.5
	c1,0.8,2,1.7,3,2.6c4.2,3.7,7.6,8.1,10.3,13c4.4,8.6,3.6,16.2,2.8,23.7c-0.5,4.9-1,7.6,0,12.5L30.8,94.3L30.8,94.3z"/>
</svg>
