<svg id="Layer_3" data-name="Layer 3" xmlns="http://www.w3.org/2000/svg" viewBox="0 0 94.31 94.31">
  <title>chimere_picto_</title>
  <g>
    <path d="M69.79,55.52a2,2,0,0,0-3.41,1.41v5.84H62c-5,0-8.31-3.21-11.46-8.84-1.42,3.33-3,7-4.91,10.55,3.94,4.85,9.09,8.3,16.37,8.3h4.33v5.44a2,2,0,0,0,3.41,1.41L80.43,69a2,2,0,0,0,0-2.83Z"/>
    <path d="M15.38,29.28h6.8c4.82,0,7.9,4.17,11.29,11.33A73.48,73.48,0,0,1,39.13,30c-3.87-6.13-9-10.75-16.94-10.75h-6.8A5,5,0,0,0,15.38,29.28Z"/>
    <path d="M62,32.12h4.33V38a2,2,0,0,0,3.41,1.41L80.43,28.73a2,2,0,0,0,0-2.83L69.79,15.26a2,2,0,0,0-3.41,1.41v5.44H62c-14.77,0-20.81,14.19-25.65,25.59-4.74,11.14-8.06,17.91-14.21,17.91h-6.8a5,5,0,0,0,0,10h6.8c13.21,0,18.63-12.75,23.41-24C50.75,39.48,54.43,32.12,62,32.12Z"/>
  </g>
</svg>
