<?xml version="1.0" encoding="utf-8"?>
<!-- Generator: Adobe Illustrator 19.2.0, SVG Export Plug-In . SVG Version: 6.00 Build 0)  -->
<svg version="1.1" id="Layer_3" xmlns="http://www.w3.org/2000/svg" xmlns:xlink="http://www.w3.org/1999/xlink" x="0px" y="0px"
	 viewBox="0 0 94.3 94.3" style="enable-background:new 0 0 94.3 94.3;" xml:space="preserve">
<title>chimere_picto_</title>
<g>
	<path d="M61,19.6c-3.8-3.1-8.8-4.7-14.8-4.7c-2.8,0-5.5,0.3-8.2,1c-2.6,0.7-5.1,1.8-7.4,3.3c-1.8,0.9-3,2.8-3,4.9
		c0,2.9,2.4,5.3,5.3,5.3c1.1,0,2.2-0.4,3.1-1c1.4-0.8,2.8-1.4,4.4-1.8c1.7-0.4,3.4-0.6,5.2-0.6c8.8,0,9.9,3.8,9.9,7
		c0,1-0.3,2.1-1,2.9C53,37.4,51.6,38.8,50,40c-1.8,1.4-3.4,2.9-5,4.5c-1.4,1.5-2.6,3.3-3.5,5.2c-1,2.3-1.6,4.8-1.5,7.3
		c0,1.4,0.6,2.8,1.7,3.8c2.3,2,5.6,2,7.9,0c1.1-0.9,1.8-2.3,1.8-3.8c-0.1-1.6,0.4-3.1,1.4-4.4c1.5-1.8,3.2-3.4,5-4.8
		c1.6-1.2,3.1-2.6,4.6-4c1.3-1.4,2.4-3,3.2-4.7c0.9-2.1,1.4-4.3,1.4-6.5C67,27.6,64.8,22.8,61,19.6z"/>
	<path d="M45.5,67.2c-1.8,0-3.6,0.7-4.9,2c-1.3,1.3-2,3-2,4.9c0,1.9,0.7,3.6,2,4.9c1.3,1.3,3,2,4.9,2c3.9,0,7-3.1,7-7
		c0-1.8-0.7-3.6-2-4.9C49.2,67.8,47.4,67.1,45.5,67.2z"/>
</g>
</svg>
